<svg width="24" height="24" viewBox="0 0 24 24" fill="none" xmlns="http://www.w3.org/2000/svg">
<path d="M12 1.95117C17.525 1.95117 22 6.42617 22 11.9512C21.9995 14.0464 21.3419 16.0888 20.1198 17.7907C18.8977 19.4926 17.1727 20.7685 15.1875 21.4387C14.6875 21.5387 14.5 21.2262 14.5 20.9637C14.5 20.6262 14.5125 19.5512 14.5125 18.2137C14.5125 17.2762 14.2 16.6762 13.8375 16.3637C16.0625 16.1137 18.4 15.2637 18.4 11.4262C18.4 10.3262 18.0125 9.43867 17.375 8.73867C17.475 8.48867 17.825 7.46367 17.275 6.08867C17.275 6.08867 16.4375 5.81367 14.525 7.11367C13.725 6.88867 12.875 6.77617 12.025 6.77617C11.175 6.77617 10.325 6.88867 9.525 7.11367C7.6125 5.82617 6.775 6.08867 6.775 6.08867C6.225 7.46367 6.575 8.48867 6.675 8.73867C6.0375 9.43867 5.65 10.3387 5.65 11.4262C5.65 15.2512 7.975 16.1137 10.2 16.3637C9.9125 16.6137 9.65 17.0512 9.5625 17.7012C8.9875 17.9637 7.55 18.3887 6.65 16.8762C6.4625 16.5762 5.9 15.8387 5.1125 15.8512C4.275 15.8637 4.775 16.3262 5.125 16.5137C5.55 16.7512 6.0375 17.6387 6.15 17.9262C6.35 18.4887 7 19.5637 9.5125 19.1012C9.5125 19.9387 9.525 20.7262 9.525 20.9637C9.525 21.2262 9.3375 21.5262 8.8375 21.4387C6.8458 20.7757 5.11342 19.5024 3.88611 17.7995C2.65881 16.0965 1.9989 14.0503 2 11.9512C2 6.42617 6.475 1.95117 12 1.95117Z" fill="#AEB4C2"/>
</svg>
