<svg width="24" height="25" viewBox="0 0 24 25" fill="none" xmlns="http://www.w3.org/2000/svg">
<path d="M19.65 3.5H4.35C3.99196 3.5 3.64858 3.64223 3.39541 3.89541C3.14223 4.14858 3 4.49196 3 4.85V20.15C3 20.508 3.14223 20.8514 3.39541 21.1046C3.64858 21.3578 3.99196 21.5 4.35 21.5H19.65C20.008 21.5 20.3514 21.3578 20.6046 21.1046C20.8578 20.8514 21 20.508 21 20.15V4.85C21 4.49196 20.8578 4.14858 20.6046 3.89541C20.3514 3.64223 20.008 3.5 19.65 3.5ZM8.4 18.8H5.7V10.7H8.4V18.8ZM7.05 9.125C6.74056 9.11616 6.4406 9.01632 6.18758 8.83797C5.93456 8.65962 5.7397 8.41066 5.62737 8.1222C5.51503 7.83374 5.49019 7.51857 5.55595 7.21607C5.6217 6.91358 5.77515 6.63716 5.9971 6.42138C6.21906 6.20559 6.49968 6.05999 6.80391 6.00278C7.10814 5.94556 7.42248 5.97927 7.70766 6.09969C7.99284 6.2201 8.23622 6.42189 8.40737 6.67983C8.57853 6.93778 8.66987 7.24044 8.67 7.55C8.66289 7.97331 8.4885 8.3766 8.18495 8.67173C7.88139 8.96685 7.47335 9.12982 7.05 9.125ZM18.3 18.8H15.6V14.534C15.6 13.256 15.06 12.797 14.358 12.797C14.1522 12.8107 13.9511 12.8649 13.7663 12.9566C13.5815 13.0482 13.4166 13.1755 13.2811 13.331C13.1457 13.4866 13.0422 13.6674 12.9768 13.863C12.9114 14.0586 12.8853 14.2652 12.9 14.471C12.8955 14.5129 12.8955 14.5551 12.9 14.597V18.8H10.2V10.7H12.81V11.87C13.0733 11.4695 13.435 11.1433 13.8605 10.9227C14.286 10.7021 14.761 10.5944 15.24 10.61C16.635 10.61 18.264 11.384 18.264 13.904L18.3 18.8Z" fill="#AEB4C2"/>
</svg>
