<svg width="24" height="25" viewBox="0 0 24 25" fill="none" xmlns="http://www.w3.org/2000/svg">
<path d="M9.75 15.25H14.25M12 3.25V5.25M2.25 9.25V11.75M21.75 9.25V11.75M9.25 10.5C9.25 10.9142 8.91421 11.25 8.5 11.25C8.08579 11.25 7.75 10.9142 7.75 10.5C7.75 10.0858 8.08579 9.75 8.5 9.75C8.91421 9.75 9.25 10.0858 9.25 10.5ZM16.25 10.5C16.25 10.9142 15.9142 11.25 15.5 11.25C15.0858 11.25 14.75 10.9142 14.75 10.5C14.75 10.0858 15.0858 9.75 15.5 9.75C15.9142 9.75 16.25 10.0858 16.25 10.5ZM3.25 5.25H20.75V16.75C20.75 18.4069 19.4069 19.75 17.75 19.75H6.25C4.59315 19.75 3.25 18.4069 3.25 16.75V5.25Z" stroke="#FF6A00" stroke-width="1.5" stroke-linecap="square"/>
</svg>
