<?xml version="1.0" encoding="UTF-8"?>
<svg id="Layer_1" xmlns="http://www.w3.org/2000/svg" version="1.1" viewBox="0 0 24 25">
  <!-- Generator: Adobe Illustrator 29.3.1, SVG Export Plug-In . SVG Version: 2.1.0 Build 151)  -->
  <path d="M11.5,23l-.4-.9s-1.7-3.7-3.4-5.3c-1.6-1.6-5.3-3.3-5.3-3.4l-.9-.4,4.2-4.5h2.9c2.5-4.6,6.4-6.5,12.8-6h.6s0,.7,0,.7c.5,6.3-1.4,10.3-6,12.8v2.9l-4.5,4.2ZM4,12.5c1.3.7,3.5,1.9,4.8,3.2,1.3,1.3,2.5,3.5,3.2,4.8l2.5-2.3v-3.1l.4-.2c3-1.5,5.9-3.9,5.6-10.9-6.9-.3-9.4,2.7-10.9,5.6l-.2.4h-3.1l-2.3,2.5ZM5.1,22.8l-1.1-1,2.7-2.8,1.1,1-2.7,2.8ZM1.8,21.7l-1.1-1,3.8-3.9,1.1,1-3.8,3.9ZM15.5,11.5c-1.4,0-2.5-1.1-2.5-2.5s1.1-2.5,2.5-2.5,2.5,1.1,2.5,2.5-1.1,2.5-2.5,2.5ZM15.5,8c-.6,0-1,.4-1,1s.4,1,1,1,1-.4,1-1-.4-1-1-1Z"/>
</svg>