<?xml version="1.0" encoding="UTF-8"?>
<svg id="Layer_1" xmlns="http://www.w3.org/2000/svg" version="1.1" viewBox="0 0 24 24">
  <!-- Generator: Adobe Illustrator 29.3.1, SVG Export Plug-In . SVG Version: 2.1.0 Build 151)  -->
  <path d="M22,20H2V4h20v16ZM14,18h6V6h-6v12ZM4,18h8V6H4v12Z"/>
  <g>
    <path d="M17.9,15.2c0-.5-.4-.9-.9-.9s-.9.4-.9.9.4.9.9.9.9-.4.9-.9ZM17.9,12c0-.5-.4-.9-.9-.9s-.9.4-.9.9.4.9.9.9.9-.4.9-.9ZM17.9,8.8c0-.5-.4-.9-.9-.9s-.9.4-.9.9.4.9.9.9.9-.4.9-.9Z"/>
    <path d="M17,16.5c-.7,0-1.2-.6-1.2-1.2s.6-1.2,1.2-1.2,1.2.6,1.2,1.2-.6,1.2-1.2,1.2ZM17,14.8c-.3,0-.5.2-.5.5s.2.5.5.5.5-.2.5-.5-.2-.5-.5-.5ZM17,13.2c-.7,0-1.2-.6-1.2-1.2s.6-1.2,1.2-1.2,1.2.6,1.2,1.2-.6,1.2-1.2,1.2ZM17,11.5c-.3,0-.5.2-.5.5s.2.5.5.5.5-.2.5-.5-.2-.5-.5-.5ZM17,10c-.7,0-1.2-.6-1.2-1.2s.6-1.2,1.2-1.2,1.2.6,1.2,1.2-.6,1.2-1.2,1.2ZM17,8.2c-.3,0-.5.2-.5.5s.2.5.5.5.5-.2.5-.5-.2-.5-.5-.5Z"/>
  </g>
</svg>