<svg width="16" height="16" viewBox="0 0 16 16" fill="none" xmlns="http://www.w3.org/2000/svg">
<path d="M13.1 2H2.9C2.66131 2 2.43239 2.09482 2.2636 2.2636C2.09482 2.43239 2 2.66131 2 2.9V13.1C2 13.3387 2.09482 13.5676 2.2636 13.7364C2.43239 13.9052 2.66131 14 2.9 14H13.1C13.3387 14 13.5676 13.9052 13.7364 13.7364C13.9052 13.5676 14 13.3387 14 13.1V2.9C14 2.66131 13.9052 2.43239 13.7364 2.2636C13.5676 2.09482 13.3387 2 13.1 2ZM5.6 12.2H3.8V6.8H5.6V12.2ZM4.7 5.75C4.49371 5.7441 4.29373 5.67755 4.12505 5.55865C3.95637 5.43974 3.82647 5.27377 3.75158 5.08147C3.67669 4.88916 3.66012 4.67905 3.70396 4.47738C3.7478 4.27572 3.8501 4.09144 3.99807 3.94758C4.14604 3.80372 4.33312 3.70666 4.53594 3.66852C4.73876 3.63038 4.94832 3.65285 5.13844 3.73313C5.32856 3.8134 5.49081 3.94793 5.60491 4.11989C5.71902 4.29185 5.77992 4.49363 5.78 4.7C5.77526 4.98221 5.659 5.25107 5.45663 5.44782C5.25426 5.64457 4.98223 5.75321 4.7 5.75ZM12.2 12.2H10.4V9.356C10.4 8.504 10.04 8.198 9.572 8.198C9.43479 8.20714 9.30073 8.24329 9.17753 8.30439C9.05433 8.36548 8.94441 8.45032 8.85409 8.55402C8.76377 8.65771 8.69483 8.77824 8.65123 8.90866C8.60762 9.03908 8.59021 9.17683 8.6 9.314C8.59702 9.34192 8.59702 9.37008 8.6 9.398V12.2H6.8V6.8H8.54V7.58C8.71552 7.313 8.95666 7.09554 9.24031 6.94846C9.52397 6.80138 9.84065 6.7296 10.16 6.74C11.09 6.74 12.176 7.256 12.176 8.936L12.2 12.2Z" fill="#AEB4C2"/>
</svg>
