<svg width="24" height="24" viewBox="0 0 24 24" fill="none" xmlns="http://www.w3.org/2000/svg">
<path d="M4.5 20.25L3.75329 20.1798L3.67619 21H4.5V20.25ZM19.5 20.25V21H20.3238L20.2467 20.1798L19.5 20.25ZM15 6.5C15 8.15685 13.6569 9.5 12 9.5V11C14.4853 11 16.5 8.98528 16.5 6.5H15ZM12 9.5C10.3431 9.5 9 8.15685 9 6.5H7.5C7.5 8.98528 9.51472 11 12 11V9.5ZM9 6.5C9 4.84315 10.3431 3.5 12 3.5V2C9.51472 2 7.5 4.01472 7.5 6.5H9ZM12 3.5C13.6569 3.5 15 4.84315 15 6.5H16.5C16.5 4.01472 14.4853 2 12 2V3.5ZM5.24671 20.3202C5.58316 16.7412 8.23548 14 12 14V12.5C7.38411 12.5 4.15472 15.9097 3.75329 20.1798L5.24671 20.3202ZM12 14C15.7645 14 18.4168 16.7412 18.7533 20.3202L20.2467 20.1798C19.8453 15.9097 16.6159 12.5 12 12.5V14ZM4.5 21H19.5V19.5H4.5V21Z" fill="#737A86"/>
</svg>
