<svg width="40" height="40" viewBox="0 0 40 40" fill="none" xmlns="http://www.w3.org/2000/svg">
<rect width="40" height="40" fill="#E0E3E9"/>
<path d="M10.105 24.5V14.88H11.145V19.781V20.977H11.197L12.224 19.833L14.122 17.792H15.383L12.9 20.444L15.63 24.5H14.369L12.146 21.081L11.145 22.108V24.5H10.105ZM16.9605 27.1V17.792H18.0005V18.884H18.0525C18.2258 18.4593 18.4815 18.1473 18.8195 17.948C19.1575 17.74 19.5561 17.636 20.0155 17.636C20.5788 17.636 21.0641 17.779 21.4715 18.065C21.8788 18.351 22.1908 18.7583 22.4075 19.287C22.6328 19.807 22.7455 20.4267 22.7455 21.146C22.7455 21.8567 22.6328 22.4763 22.4075 23.005C22.1908 23.5337 21.8788 23.941 21.4715 24.227C21.0641 24.513 20.5788 24.656 20.0155 24.656C19.5561 24.656 19.1618 24.552 18.8325 24.344C18.5118 24.136 18.2518 23.824 18.0525 23.408H18.0005V27.1H16.9605ZM19.7295 23.72C20.3188 23.72 20.7825 23.538 21.1205 23.174C21.4585 22.8013 21.6275 22.316 21.6275 21.718V20.574C21.6275 19.976 21.4585 19.495 21.1205 19.131C20.7825 18.7583 20.3188 18.572 19.7295 18.572C19.4175 18.572 19.1271 18.6283 18.8585 18.741C18.5985 18.8537 18.3905 19.0053 18.2345 19.196C18.0785 19.3867 18.0005 19.6077 18.0005 19.859V22.355C18.0005 22.641 18.0785 22.888 18.2345 23.096C18.3905 23.2953 18.5985 23.4513 18.8585 23.564C19.1271 23.668 19.4175 23.72 19.7295 23.72ZM24.5015 24.5V14.88H25.5415V18.884H25.5935C25.7582 18.5027 25.9878 18.1993 26.2825 17.974C26.5858 17.7487 26.9888 17.636 27.4915 17.636C28.1848 17.636 28.7308 17.8613 29.1295 18.312C29.5368 18.754 29.7405 19.3823 29.7405 20.197V24.5H28.7005V20.379C28.7005 19.781 28.5705 19.3303 28.3105 19.027C28.0592 18.7237 27.6822 18.572 27.1795 18.572C26.9022 18.572 26.6378 18.6197 26.3865 18.715C26.1352 18.8017 25.9315 18.9403 25.7755 19.131C25.6195 19.3217 25.5415 19.56 25.5415 19.846V24.5H24.5015Z" fill="#1A1D22"/>
</svg>
